<svg width="28" height="28" viewBox="0 0 28 28" fill="none" xmlns="http://www.w3.org/2000/svg">
<path d="M23.375 2.75001H22.4375V1.83887C22.4375 1.33438 22.0496 0.901373 21.5451 0.876178C21.4184 0.870071 21.2917 0.889762 21.1728 0.93406C21.0538 0.978358 20.9451 1.04634 20.8533 1.13389C20.7614 1.22143 20.6882 1.32672 20.6383 1.44337C20.5883 1.56002 20.5625 1.6856 20.5625 1.81251V2.75001H7.4375V1.83887C7.4375 1.33438 7.04961 0.901373 6.54512 0.876178C6.41836 0.870071 6.29168 0.889762 6.17276 0.93406C6.05383 0.978358 5.94514 1.04634 5.85327 1.13389C5.76139 1.22143 5.68825 1.32672 5.63827 1.44337C5.58829 1.56002 5.56251 1.6856 5.5625 1.81251V2.75001H4.625C3.63044 2.75001 2.67661 3.14509 1.97335 3.84836C1.27009 4.55162 0.875 5.50544 0.875 6.50001V23.375C0.875 24.3696 1.27009 25.3234 1.97335 26.0267C2.67661 26.7299 3.63044 27.125 4.625 27.125H23.375C24.3696 27.125 25.3234 26.7299 26.0266 26.0267C26.7299 25.3234 27.125 24.3696 27.125 23.375V6.50001C27.125 5.50544 26.7299 4.55162 26.0266 3.84836C25.3234 3.14509 24.3696 2.75001 23.375 2.75001ZM6.96875 23.375C6.69062 23.375 6.41874 23.2925 6.18748 23.138C5.95622 22.9835 5.77598 22.7639 5.66954 22.5069C5.56311 22.2499 5.53526 21.9672 5.58952 21.6944C5.64378 21.4216 5.77771 21.1711 5.97438 20.9744C6.17105 20.7777 6.42162 20.6438 6.6944 20.5895C6.96719 20.5353 7.24994 20.5631 7.5069 20.6696C7.76386 20.776 7.98348 20.9562 8.138 21.1875C8.29253 21.4187 8.375 21.6906 8.375 21.9688C8.375 22.3417 8.22684 22.6994 7.96312 22.9631C7.6994 23.2268 7.34171 23.375 6.96875 23.375ZM6.96875 18.6875C6.69062 18.6875 6.41874 18.605 6.18748 18.4505C5.95622 18.296 5.77598 18.0764 5.66954 17.8194C5.56311 17.5624 5.53526 17.2797 5.58952 17.0069C5.64378 16.7341 5.77771 16.4836 5.97438 16.2869C6.17105 16.0902 6.42162 15.9563 6.6944 15.902C6.96719 15.8478 7.24994 15.8756 7.5069 15.9821C7.76386 16.0885 7.98348 16.2687 8.138 16.5C8.29253 16.7312 8.375 17.0031 8.375 17.2813C8.375 17.6542 8.22684 18.0119 7.96312 18.2756C7.6994 18.5393 7.34171 18.6875 6.96875 18.6875ZM11.6562 23.375C11.3781 23.375 11.1062 23.2925 10.875 23.138C10.6437 22.9835 10.4635 22.7639 10.357 22.5069C10.2506 22.2499 10.2228 21.9672 10.277 21.6944C10.3313 21.4216 10.4652 21.1711 10.6619 20.9744C10.8585 20.7777 11.1091 20.6438 11.3819 20.5895C11.6547 20.5353 11.9374 20.5631 12.1944 20.6696C12.4514 20.776 12.671 20.9562 12.8255 21.1875C12.98 21.4187 13.0625 21.6906 13.0625 21.9688C13.0625 22.3417 12.9143 22.6994 12.6506 22.9631C12.3869 23.2268 12.0292 23.375 11.6562 23.375ZM11.6562 18.6875C11.3781 18.6875 11.1062 18.605 10.875 18.4505C10.6437 18.296 10.4635 18.0764 10.357 17.8194C10.2506 17.5624 10.2228 17.2797 10.277 17.0069C10.3313 16.7341 10.4652 16.4836 10.6619 16.2869C10.8585 16.0902 11.1091 15.9563 11.3819 15.902C11.6547 15.8478 11.9374 15.8756 12.1944 15.9821C12.4514 16.0885 12.671 16.2687 12.8255 16.5C12.98 16.7312 13.0625 17.0031 13.0625 17.2813C13.0625 17.6542 12.9143 18.0119 12.6506 18.2756C12.3869 18.5393 12.0292 18.6875 11.6562 18.6875ZM16.3438 23.375C16.0656 23.375 15.7937 23.2925 15.5625 23.138C15.3312 22.9835 15.151 22.7639 15.0445 22.5069C14.9381 22.2499 14.9103 21.9672 14.9645 21.6944C15.0188 21.4216 15.1527 21.1711 15.3494 20.9744C15.546 20.7777 15.7966 20.6438 16.0694 20.5895C16.3422 20.5353 16.6249 20.5631 16.8819 20.6696C17.1389 20.776 17.3585 20.9562 17.513 21.1875C17.6675 21.4187 17.75 21.6906 17.75 21.9688C17.75 22.3417 17.6018 22.6994 17.3381 22.9631C17.0744 23.2268 16.7167 23.375 16.3438 23.375ZM16.3438 18.6875C16.0656 18.6875 15.7937 18.605 15.5625 18.4505C15.3312 18.296 15.151 18.0764 15.0445 17.8194C14.9381 17.5624 14.9103 17.2797 14.9645 17.0069C15.0188 16.7341 15.1527 16.4836 15.3494 16.2869C15.546 16.0902 15.7966 15.9563 16.0694 15.902C16.3422 15.8478 16.6249 15.8756 16.8819 15.9821C17.1389 16.0885 17.3585 16.2687 17.513 16.5C17.6675 16.7312 17.75 17.0031 17.75 17.2813C17.75 17.6542 17.6018 18.0119 17.3381 18.2756C17.0744 18.5393 16.7167 18.6875 16.3438 18.6875ZM16.3438 14C16.0656 14 15.7937 13.9175 15.5625 13.763C15.3312 13.6085 15.151 13.3889 15.0445 13.1319C14.9381 12.8749 14.9103 12.5922 14.9645 12.3194C15.0188 12.0466 15.1527 11.7961 15.3494 11.5994C15.546 11.4027 15.7966 11.2688 16.0694 11.2145C16.3422 11.1603 16.6249 11.1881 16.8819 11.2945C17.1389 11.401 17.3585 11.5812 17.513 11.8125C17.6675 12.0437 17.75 12.3156 17.75 12.5938C17.75 12.9667 17.6018 13.3244 17.3381 13.5881C17.0744 13.8518 16.7167 14 16.3438 14ZM21.0312 18.6875C20.7531 18.6875 20.4812 18.605 20.25 18.4505C20.0187 18.296 19.8385 18.0764 19.732 17.8194C19.6256 17.5624 19.5978 17.2797 19.652 17.0069C19.7063 16.7341 19.8402 16.4836 20.0369 16.2869C20.2335 16.0902 20.4841 15.9563 20.7569 15.902C21.0297 15.8478 21.3124 15.8756 21.5694 15.9821C21.8264 16.0885 22.046 16.2687 22.2005 16.5C22.355 16.7312 22.4375 17.0031 22.4375 17.2813C22.4375 17.6542 22.2893 18.0119 22.0256 18.2756C21.7619 18.5393 21.4042 18.6875 21.0312 18.6875ZM21.0312 14C20.7531 14 20.4812 13.9175 20.25 13.763C20.0187 13.6085 19.8385 13.3889 19.732 13.1319C19.6256 12.8749 19.5978 12.5922 19.652 12.3194C19.7063 12.0466 19.8402 11.7961 20.0369 11.5994C20.2335 11.4027 20.4841 11.2688 20.7569 11.2145C21.0297 11.1603 21.3124 11.1881 21.5694 11.2945C21.8264 11.401 22.046 11.5812 22.2005 11.8125C22.355 12.0437 22.4375 12.3156 22.4375 12.5938C22.4375 12.9667 22.2893 13.3244 22.0256 13.5881C21.7619 13.8518 21.4042 14 21.0312 14ZM25.25 6.96876V7.90626C25.25 8.03058 25.2006 8.14981 25.1127 8.23771C25.0248 8.32562 24.9056 8.37501 24.7812 8.37501H3.21875C3.09443 8.37501 2.9752 8.32562 2.88729 8.23771C2.79939 8.14981 2.75 8.03058 2.75 7.90626V6.50001C2.75139 6.00315 2.94938 5.52705 3.30071 5.17572C3.65204 4.82439 4.12815 4.6264 4.625 4.62501H23.375C23.8719 4.6264 24.348 4.82439 24.6993 5.17572C25.0506 5.52705 25.2486 6.00315 25.25 6.50001V6.96876Z" fill="#166FFF"/>
</svg>
