<svg width="20" height="18" viewBox="0 0 20 18" fill="none" xmlns="http://www.w3.org/2000/svg">
<path fill-rule="evenodd" clip-rule="evenodd" d="M5 3C5 1.89543 5.89543 1 7 1H11C12.1046 1 13 1.89543 13 3C13 3.55228 13.4477 4 14 4H15C17.2091 4 19 5.79086 19 8V13C19 15.2091 17.2091 17 15 17H5C2.79086 17 1 15.2091 1 13V8C1 6.13252 2.27976 4.56394 4.01012 4.12343C4.54533 3.98717 5 3.55228 5 3ZM9.5 14C11.433 14 13 12.433 13 10.5C13 8.567 11.433 7 9.5 7C7.567 7 6 8.567 6 10.5C6 12.433 7.567 14 9.5 14Z" fill="white"/>
<path d="M4.01012 4.12343L3.88676 3.63888L4.01012 4.12343ZM7 0.5C5.61929 0.5 4.5 1.61929 4.5 3H5.5C5.5 2.17157 6.17157 1.5 7 1.5V0.5ZM11 0.5H7V1.5H11V0.5ZM13.5 3C13.5 1.61929 12.3807 0.5 11 0.5V1.5C11.8284 1.5 12.5 2.17157 12.5 3H13.5ZM14 3.5C13.7239 3.5 13.5 3.27614 13.5 3H12.5C12.5 3.82843 13.1716 4.5 14 4.5V3.5ZM15 3.5H14V4.5H15V3.5ZM19.5 8C19.5 5.51472 17.4853 3.5 15 3.5V4.5C16.933 4.5 18.5 6.067 18.5 8H19.5ZM19.5 13V8H18.5V13H19.5ZM15 17.5C17.4853 17.5 19.5 15.4853 19.5 13H18.5C18.5 14.933 16.933 16.5 15 16.5V17.5ZM5 17.5H15V16.5H5V17.5ZM0.5 13C0.5 15.4853 2.51472 17.5 5 17.5V16.5C3.067 16.5 1.5 14.933 1.5 13H0.5ZM0.5 8V13H1.5V8H0.5ZM3.88676 3.63888C1.9402 4.13444 0.5 5.8984 0.5 8H1.5C1.5 6.36663 2.61932 4.99344 4.13347 4.60797L3.88676 3.63888ZM4.5 3C4.5 3.25456 4.27529 3.53997 3.88676 3.63888L4.13347 4.60797C4.81537 4.43437 5.5 3.85001 5.5 3H4.5ZM12.5 10.5C12.5 12.1569 11.1569 13.5 9.5 13.5V14.5C11.7091 14.5 13.5 12.7091 13.5 10.5H12.5ZM9.5 7.5C11.1569 7.5 12.5 8.84315 12.5 10.5H13.5C13.5 8.29086 11.7091 6.5 9.5 6.5V7.5ZM6.5 10.5C6.5 8.84315 7.84315 7.5 9.5 7.5V6.5C7.29086 6.5 5.5 8.29086 5.5 10.5H6.5ZM9.5 13.5C7.84315 13.5 6.5 12.1569 6.5 10.5H5.5C5.5 12.7091 7.29086 14.5 9.5 14.5V13.5Z" fill="white"/>
</svg>
