<svg width="25" height="25" viewBox="0 0 25 25" fill="none" xmlns="http://www.w3.org/2000/svg">
<path d="M12.1875 0C5.45684 0 0 5.45684 0 12.1875C0 18.9076 5.46797 24.375 12.1875 24.375C18.9176 24.375 24.375 18.9176 24.375 12.1875C24.375 5.46738 18.9076 0 12.1875 0ZM18.5156 14.0625H11.4844C11.4222 14.0625 11.3626 14.0378 11.3186 13.9939C11.2747 13.9499 11.25 13.8903 11.25 13.8281V3.98438C11.25 3.92221 11.2747 3.8626 11.3186 3.81865C11.3626 3.77469 11.4222 3.75 11.4844 3.75H12.8906C12.9528 3.75 13.0124 3.77469 13.0564 3.81865C13.1003 3.8626 13.125 3.92221 13.125 3.98438V12.1875H18.5156C18.5778 12.1875 18.6374 12.2122 18.6814 12.2561C18.7253 12.3001 18.75 12.3597 18.75 12.4219V13.8281C18.75 13.8903 18.7253 13.9499 18.6814 13.9939C18.6374 14.0378 18.5778 14.0625 18.5156 14.0625Z" fill="#166FFF"/>
</svg>
