<svg width="30" height="30" viewBox="0 0 30 30" fill="none" xmlns="http://www.w3.org/2000/svg">
<path d="M15 1.875C9.82441 1.875 5.625 5.65488 5.625 10.3125C5.625 17.8125 15 28.125 15 28.125C15 28.125 24.375 17.8125 24.375 10.3125C24.375 5.65488 20.1756 1.875 15 1.875ZM15 15C14.2583 15 13.5333 14.7801 12.9166 14.368C12.2999 13.956 11.8193 13.3703 11.5355 12.6851C11.2516 11.9998 11.1774 11.2458 11.3221 10.5184C11.4667 9.79098 11.8239 9.1228 12.3483 8.59835C12.8728 8.0739 13.541 7.71675 14.2684 7.57205C14.9958 7.42736 15.7498 7.50162 16.4351 7.78545C17.1203 8.06928 17.706 8.54993 18.118 9.16661C18.5301 9.7833 18.75 10.5083 18.75 11.25C18.7489 12.2442 18.3535 13.1974 17.6504 13.9005C16.9474 14.6035 15.9942 14.9989 15 15Z" fill="#166FFF"/>
</svg>
