<svg version="1.1" id="Layer_1" xmlns="http://www.w3.org/2000/svg" xmlns:xlink="http://www.w3.org/1999/xlink" x="0px" y="0px"
	 width="100%" viewBox="0 0 1080 1080" enable-background="new 0 0 1080 1080" xml:space="preserve">
<path fill="#020A1D" opacity="1.000000" stroke="none" 
	d="
M711.000000,1081.000000 
	C474.027283,1081.000000 237.554581,1081.000000 1.040936,1081.000000 
	C1.040936,721.068848 1.040936,361.137665 1.040936,1.103249 
	C360.889587,1.103249 720.779175,1.103249 1080.834473,1.103249 
	C1080.834473,360.999939 1080.834473,720.999939 1080.834473,1081.000000 
	C957.803894,1081.000000 834.651917,1081.000000 711.000000,1081.000000 
M533.575378,267.663483 
	C528.356262,269.773682 522.951782,271.517670 517.947144,274.051483 
	C474.097382,296.252472 442.679260,328.972290 429.750580,377.910828 
	C415.923431,377.931824 402.096283,377.962402 388.269135,377.958435 
	C386.948151,377.958038 385.624023,377.770233 384.306946,377.620117 
	C381.247345,377.271393 379.804291,375.953125 379.927094,372.463165 
	C380.213989,364.310272 380.080780,356.139099 379.950989,347.977997 
	C379.924164,346.292084 379.172821,344.617737 378.855743,342.182617 
	C386.343658,320.985443 396.954010,301.385284 411.385437,284.248016 
	C421.821228,271.855530 433.812408,260.772858 445.695435,248.977905 
	C445.735016,248.739410 445.774597,248.500931 445.814178,248.262451 
	C445.377869,248.296051 444.941559,248.329666 443.782562,248.578415 
	C354.645477,279.669525 291.780243,338.863007 255.173630,425.744019 
	C240.901581,459.616852 234.285721,495.305847 232.136307,532.079346 
	C224.877380,537.246643 225.193390,545.132446 232.966446,549.937317 
	C234.465530,564.138489 235.149002,578.483032 237.614929,592.514343 
	C245.358688,636.576782 262.946716,676.574341 289.697235,712.410828 
	C324.052521,758.435120 367.643097,792.339600 422.099854,811.518005 
	C447.077789,820.314636 472.853851,824.903748 499.411163,823.386108 
	C509.832977,822.790405 520.186157,820.993408 531.163574,820.192688 
	C531.855042,821.885193 532.546509,823.577698 533.370911,825.595703 
	C531.807190,825.771057 530.834900,825.983643 529.866394,825.967712 
	C527.674377,825.931702 525.385437,826.217896 526.192566,829.029968 
	C526.553955,830.289185 528.671082,831.808594 530.057617,831.877625 
	C536.199402,832.182922 542.370361,832.133423 548.517883,831.889221 
	C549.699219,831.842285 551.817322,830.336609 551.811340,829.516296 
	C551.772766,824.272827 551.261292,819.032898 551.387268,813.265015 
	C601.585571,792.800476 636.875427,758.587952 652.104980,705.039673 
	C667.032715,705.032959 681.963623,705.198730 696.886292,704.920959 
	C701.752808,704.830444 703.213379,706.471436 703.062195,711.208740 
	C702.756287,720.794983 702.970093,730.397766 702.967773,740.735413 
	C694.247559,764.012207 682.032898,785.325256 665.653503,803.982544 
	C656.702026,814.178833 646.525024,823.299255 636.297241,833.031616 
	C636.250549,833.276062 636.203857,833.520447 636.157166,833.764893 
	C636.601501,833.722534 637.045837,833.680237 638.207092,833.403381 
	C686.615662,817.332886 728.459290,790.849854 763.623352,753.930603 
	C812.706116,702.397949 840.777527,641.050720 847.721191,570.317261 
	C853.528320,511.160461 842.635986,455.021271 813.630737,402.955536 
	C779.843994,342.306610 731.244751,298.010986 666.113281,272.767670 
	C639.169678,262.325012 611.186340,257.075134 582.209106,258.610443 
	C572.445496,259.127747 562.741699,260.773621 552.900269,261.192017 
	C552.370422,259.697205 551.840515,258.202362 551.186157,256.356354 
	C554.212585,256.116241 556.771606,255.913193 559.330566,255.710144 
	C559.670166,255.256775 560.009827,254.803406 560.349426,254.350021 
	C558.780701,252.899979 557.298218,250.327072 555.628113,250.198914 
	C549.215698,249.706818 542.741394,249.909515 536.293762,250.035980 
	C533.108643,250.098434 532.032654,252.605774 533.551697,255.489365 
	C534.012695,256.364502 533.911926,257.572205 533.941040,258.631104 
	C534.018799,261.463898 534.027466,264.298615 533.575378,267.663483 
M932.007812,546.407959 
	C932.007629,543.583313 931.885315,540.752197 932.034912,537.935486 
	C932.279663,533.327332 932.378662,529.116821 925.628540,531.788025 
	C925.016418,532.030273 924.019043,531.512268 923.276917,531.177979 
	C918.444702,529.001648 915.278625,531.421265 912.981201,535.228821 
	C910.546997,539.263123 911.937988,545.646118 915.100952,548.522888 
	C918.702576,551.798645 922.414795,551.377319 926.472961,548.525635 
	C925.882751,554.402100 923.900391,555.547119 919.944702,553.675781 
	C917.976196,552.744568 915.682434,552.500549 913.535828,551.945679 
	C913.212524,552.574036 912.889221,553.202454 912.565979,553.830811 
	C914.360840,555.512024 915.876221,557.826477 917.999512,558.763672 
	C926.746948,562.624817 932.004578,558.223877 932.007812,546.407959 
M863.206238,550.940979 
	C865.434570,550.877502 867.709595,550.501526 869.880127,550.825378 
	C872.971741,551.286926 874.038635,550.323608 874.080261,547.195679 
	C874.167053,540.669922 874.753967,534.147400 874.707764,527.626587 
	C874.699402,526.450806 872.808899,524.718689 871.471985,524.331055 
	C870.640259,524.089783 868.743896,525.667236 868.182983,526.838989 
	C867.559204,528.142029 867.909668,529.911438 867.846680,531.250610 
	C865.026733,530.873962 862.763977,530.093506 860.652710,530.390320 
	C856.393372,530.989380 852.878967,535.331787 853.091736,539.525330 
	C853.365112,544.916748 856.195007,550.907776 863.206238,550.940979 
M533.251404,212.164963 
	C534.675049,212.767853 536.069763,213.790131 537.528137,213.891006 
	C541.168091,214.142792 544.837463,214.015732 548.494080,213.967087 
	C553.194458,213.904556 553.835999,212.842163 552.229370,208.210190 
	C551.948120,207.399277 551.747253,206.385620 551.974548,205.600250 
	C554.187500,197.952576 553.453247,196.654495 546.315918,192.756607 
	C542.527100,190.687469 539.250305,192.265182 536.770264,194.170486 
	C534.782593,195.697540 533.666748,198.965607 533.155762,201.649780 
	C532.561951,204.769852 533.049622,208.095749 533.251404,212.164963 
M164.610764,532.982178 
	C166.020187,532.574463 167.429611,532.166748 168.839050,531.758972 
	C169.198761,531.073792 169.558487,530.388611 169.918198,529.703430 
	C168.228790,528.642944 166.643387,526.956177 164.827942,526.654663 
	C161.249130,526.060364 157.396103,525.551025 153.932861,526.294250 
	C150.845306,526.956970 149.559097,530.068787 149.992020,533.487549 
	C150.527451,537.715637 153.676804,539.060303 157.102539,540.162109 
	C157.893250,540.416443 158.940735,540.484680 159.398178,541.032471 
	C160.283356,542.092590 160.832901,543.432861 161.521561,544.657043 
	C160.286118,544.558228 159.033615,544.555664 157.818848,544.340271 
	C155.359390,543.904297 152.920380,543.352905 150.472961,542.848999 
	C150.171326,543.595276 149.869690,544.341492 149.568054,545.087708 
	C151.905304,546.937073 154.031189,549.197327 156.631622,550.535095 
	C160.131577,552.335571 166.914825,549.253540 168.591125,545.602478 
	C170.072556,542.375854 167.864655,538.354919 163.363297,536.193115 
	C162.169815,535.619934 160.685501,535.461426 159.723160,534.651184 
	C158.746124,533.828552 158.249115,532.435852 157.541870,531.292786 
	C158.766846,531.422729 160.022217,531.429504 161.207062,531.721985 
	C162.132736,531.950500 162.970886,532.533630 164.610764,532.982178 
M551.347473,869.454651 
	C546.306152,868.978882 541.271606,868.403442 536.221313,868.058716 
	C532.124268,867.779175 531.580383,870.143494 532.340454,873.557251 
	C532.680298,875.083496 532.226257,876.774231 532.475769,878.335510 
	C532.922913,881.133301 532.793213,884.597778 534.410828,886.508484 
	C537.326782,889.952515 541.892456,891.503479 546.085693,888.919373 
	C548.568726,887.389160 551.084534,884.524536 551.769043,881.803101 
	C552.692627,878.131226 551.868652,874.019653 551.347473,869.454651 
M535.154236,932.002563 
	C539.382690,931.948181 540.301697,928.641846 541.823486,925.632507 
	C542.691223,923.916565 544.566895,922.710205 545.988708,921.274414 
	C545.570679,923.140198 544.977356,924.988708 544.790771,926.877380 
	C544.644897,928.354431 545.003357,929.881287 545.137756,931.386047 
	C546.729919,930.911194 548.882324,930.921570 549.799744,929.862305 
	C551.823792,927.525269 552.978333,924.846130 552.167358,921.264709 
	C551.254211,917.231995 549.832153,914.447205 545.408691,913.987854 
	C540.650818,913.493713 538.438232,916.316650 537.141602,920.288696 
	C536.837769,921.219482 537.176819,922.528564 536.635986,923.174438 
	C535.806274,924.165161 534.470215,924.731934 533.348999,925.478638 
	C533.192688,924.203918 532.720093,922.866272 532.958008,921.669922 
	C533.273193,920.085022 534.542725,918.625854 534.601501,917.082092 
	C534.629456,916.348267 532.531067,914.694458 531.863403,914.909424 
	C527.570068,916.291748 525.877319,920.817505 527.070251,927.077698 
	C527.831055,931.070435 530.407654,932.558960 535.154236,932.002563 
M201.661682,550.929932 
	C204.905319,550.903381 208.088226,548.124146 211.482758,550.686096 
	C211.621567,550.790894 213.794479,549.158997 213.826508,548.292114 
	C214.043793,542.410828 213.940063,536.517639 213.940063,530.981628 
	C209.589981,530.981628 205.892975,531.103760 202.207230,530.952393 
	C196.977249,530.737671 194.260849,532.760742 193.171753,537.987366 
	C191.822998,544.460083 194.240067,548.473633 201.661682,550.929932 
M551.000000,165.179642 
	C551.720398,165.907471 552.440796,166.635284 553.161133,167.363098 
	C555.052612,165.009048 558.493347,162.645233 558.478577,160.303177 
	C558.455566,156.635895 558.735840,151.439407 553.318909,150.122177 
	C549.084595,149.092545 545.859314,150.558685 544.185913,154.830353 
	C543.521362,156.526657 542.930298,158.318451 541.892700,159.771866 
	C541.420837,160.432846 539.944885,160.377014 538.924377,160.646317 
	C538.758911,159.596405 538.342346,158.502609 538.515503,157.511871 
	C538.632812,156.840714 539.959534,156.382263 540.079407,155.709961 
	C540.376404,154.043823 540.291199,152.309570 540.359558,150.602692 
	C538.770325,151.040543 536.767944,151.017319 535.668701,152.002106 
	C532.277527,155.040176 531.966919,159.303558 533.778748,162.994873 
	C534.953918,165.389114 537.827454,168.328049 540.121704,168.492783 
	C544.234741,168.788116 546.445374,165.033890 548.048828,161.400467 
	C548.854187,159.575455 549.915894,157.863556 550.861694,156.100510 
	C551.501526,156.327103 552.141296,156.553711 552.781067,156.780304 
	C552.185730,159.321579 551.590393,161.862839 551.000000,165.179642 
M540.757141,854.998657 
	C547.502563,855.011719 550.722229,852.946899 552.025024,847.772522 
	C553.452576,842.102722 551.717590,838.687195 544.574280,834.911438 
	C545.260986,838.133301 545.540649,840.593201 546.330200,842.876770 
	C547.474182,846.185364 547.157227,846.909058 543.557495,847.348572 
	C543.420471,847.051025 543.172913,846.756775 543.163818,846.455383 
	C543.089233,843.967163 543.091309,841.476501 543.007385,838.988647 
	C542.879517,835.196350 540.374817,833.647644 537.186340,835.649780 
	C533.197205,838.154602 531.248230,841.908020 532.055054,846.681763 
	C532.805603,851.123047 535.106262,854.293579 540.757141,854.998657 
M536.420471,228.614090 
	C535.341187,230.286423 534.087097,231.872894 533.215698,233.647324 
	C530.692200,238.785934 533.631287,244.156097 540.433289,245.520035 
	C539.733887,243.015747 539.238525,240.891769 538.542908,238.835526 
	C537.564087,235.942108 538.314087,234.185394 541.991333,233.340851 
	C541.991333,236.889755 542.097595,240.028244 541.965027,243.156631 
	C541.791016,247.262802 543.896606,247.628220 547.021240,246.425568 
	C551.657959,244.640915 553.889404,239.974152 552.964905,234.129074 
	C552.387207,230.477158 548.200195,227.021652 543.877686,227.052109 
	C541.603821,227.068130 539.334778,227.777924 536.420471,228.614090 
M888.980530,544.297852 
	C888.981628,544.797607 888.970703,545.297791 888.985901,545.797119 
	C889.055969,548.097229 888.590942,550.954773 892.133545,550.821289 
	C895.657898,550.688354 894.902527,547.755981 895.002930,545.528809 
	C895.077881,543.866333 894.584290,541.978455 895.219299,540.591736 
	C896.008484,538.868286 897.699341,537.557800 899.000854,536.068970 
	C900.324890,537.668823 902.191956,539.081909 902.824402,540.919739 
	C903.490967,542.856934 902.702393,545.250122 903.084045,547.346680 
	C903.316162,548.621094 904.559875,549.711304 905.349121,550.884216 
	C906.551208,549.940613 908.748474,549.032166 908.783264,548.047363 
	C908.934204,543.770935 908.661316,539.446655 908.135498,535.190002 
	C907.750366,532.072205 905.506104,530.906189 902.375122,530.924561 
	C899.214294,530.943054 896.008240,530.187744 892.908264,530.537048 
	C891.494019,530.696472 889.414978,532.534546 889.163269,533.893738 
	C888.596619,536.954346 888.981689,540.191223 888.980530,544.297852 
M176.263168,531.463623 
	C175.075928,532.623901 173.132538,533.626099 172.850372,534.975586 
	C172.146484,538.342224 171.053406,542.320435 172.205124,545.225037 
	C174.091446,549.982422 179.863144,552.190491 184.361832,550.827026 
	C187.785370,549.789429 190.095200,547.339050 190.641693,542.427429 
	C187.704803,543.153015 185.437378,543.934021 183.110291,544.207336 
	C181.656998,544.377991 179.029114,544.129456 178.816727,543.465271 
	C178.209167,541.565063 178.244888,539.273621 178.749405,537.322754 
	C178.890717,536.776367 181.594604,536.509094 183.008392,536.759827 
	C185.497604,537.201416 187.898560,538.140442 190.574570,538.942505 
	C189.675400,531.465881 184.692291,528.850769 176.263168,531.463623 
M532.008728,900.628418 
	C532.328308,907.270447 536.880249,912.117859 542.647583,911.957886 
	C547.900879,911.812134 551.861084,907.731384 552.016052,902.304321 
	C552.207275,895.607056 550.157166,892.919861 543.634949,892.534241 
	C544.307434,894.871399 545.094238,896.902832 545.432251,899.006470 
	C545.695190,900.643188 545.399048,902.369812 545.351440,904.056458 
	C543.183228,903.976807 540.896301,904.250793 538.923462,903.588806 
	C538.374634,903.404785 538.573669,900.428955 538.755920,898.769714 
	C538.991150,896.628662 539.554199,894.523682 539.976074,892.403137 
	C539.180542,892.067688 538.385071,891.732178 537.589539,891.396729 
	C535.730774,894.202820 533.872009,897.008911 532.008728,900.628418 
M534.162109,174.934891 
	C531.367554,184.029541 533.553223,189.073608 541.446594,189.434387 
	C540.764648,186.930786 539.888123,184.740524 539.650879,182.483124 
	C539.491211,180.962555 539.761292,178.467911 540.680908,177.972916 
	C542.192871,177.159042 544.719849,176.995514 546.165527,177.772873 
	C546.987976,178.215088 546.807861,181.114304 546.548767,182.826782 
	C546.216736,185.020279 545.350769,187.132965 544.714905,189.280472 
	C545.427490,189.704437 546.140076,190.128387 546.852661,190.552338 
	C548.860474,188.294800 551.800842,186.338867 552.651917,183.707230 
	C553.853455,179.992142 553.507751,175.845581 549.794983,172.910065 
	C545.737854,169.702347 539.206909,170.180984 534.162109,174.934891 
M218.040207,547.902527 
	C219.682465,548.856079 221.324722,549.809631 222.966995,550.763184 
	C223.637314,549.400208 224.838989,548.055481 224.886398,546.671204 
	C225.096558,540.535706 224.920731,534.388306 224.998062,528.246582 
	C225.034485,525.354614 223.829788,523.461365 220.942169,524.215576 
	C219.710129,524.537354 218.202896,526.703247 218.136703,528.093811 
	C217.837097,534.388184 218.007629,540.704956 218.040207,547.902527 
M533.868774,217.418839 
	C532.110168,223.297684 532.526428,223.958115 538.156250,223.983215 
	C543.981140,224.009201 549.808533,223.886581 555.630310,224.023773 
	C558.773987,224.097855 559.097900,222.358734 559.038574,219.891846 
	C558.965515,216.855469 557.104431,217.132584 554.932312,217.167297 
	C548.179565,217.275253 541.423462,217.170868 533.868774,217.418839 
M527.945068,863.951233 
	C534.587585,864.022278 541.243713,863.872620 547.865356,864.281677 
	C550.237305,864.428284 551.731628,864.666809 551.992859,861.804688 
	C552.246216,859.028564 551.182251,857.906494 548.328796,857.972534 
	C542.350647,858.110840 536.366699,857.970459 530.385986,858.032349 
	C525.669800,858.081055 525.230286,858.899597 527.945068,863.951233 
M884.980713,547.068665 
	C884.980713,541.686707 884.980713,536.304749 884.980713,531.038147 
	C878.048279,530.302979 878.041382,530.302979 878.021790,536.019714 
	C878.009338,539.654724 877.772461,543.315674 878.146240,546.912048 
	C878.292664,548.321411 879.832153,549.586121 880.737244,550.916748 
	C882.142395,549.932190 883.547485,548.947632 884.980713,547.068665 
M884.384216,528.009521 
	C884.398987,526.342712 885.079285,523.994141 884.253662,523.188049 
	C883.301880,522.258789 880.949829,522.360229 879.353210,522.702209 
	C878.751282,522.831116 878.008179,525.751160 878.274658,525.921631 
	C879.961670,527.000977 881.913818,527.666016 884.384216,528.009521 
z"/>
<path fill="#FEFEFE" opacity="1.000000" stroke="none" 
	d="
M530.570557,819.743469 
	C520.186157,820.993408 509.832977,822.790405 499.411163,823.386108 
	C472.853851,824.903748 447.077789,820.314636 422.099854,811.518005 
	C367.643097,792.339600 324.052521,758.435120 289.697235,712.410828 
	C262.946716,676.574341 245.358688,636.576782 237.614929,592.514343 
	C235.149002,578.483032 234.465530,564.138489 232.975647,549.018127 
	C232.929031,542.724915 232.873199,537.350891 232.817352,531.976868 
	C234.285721,495.305847 240.901581,459.616852 255.173630,425.744019 
	C291.780243,338.863007 354.645477,279.669525 444.287415,248.662781 
	C444.792267,248.747147 445.109955,249.106049 445.109955,249.106049 
	C433.812408,260.772858 421.821228,271.855530 411.385437,284.248016 
	C396.954010,301.385284 386.343658,320.985443 378.534180,342.742126 
	C377.852722,344.545197 377.492828,345.788788 376.971863,347.366150 
	C374.167847,357.462921 371.524902,367.225891 368.507965,377.006561 
	C366.521027,377.246185 364.910492,377.639740 363.294708,377.662384 
	C352.358734,377.815491 341.421417,377.875885 330.485046,378.006012 
	C328.866333,378.025299 327.250122,378.254395 325.632751,378.386414 
	C325.673615,378.945190 325.714478,379.503967 325.755341,380.062744 
	C339.898041,380.062744 354.040710,380.062744 368.203003,380.499878 
	C367.322327,396.692688 365.861176,412.440552 365.642303,428.205658 
	C365.226471,458.160767 365.508148,488.125732 365.536194,518.086609 
	C365.540222,522.399475 365.744415,526.712219 365.716797,531.473938 
	C365.682251,537.942566 365.786865,543.962280 365.744385,550.432007 
	C365.589874,563.208435 364.925507,575.576843 365.712433,587.852295 
	C367.328674,613.064880 389.195679,631.824646 416.132721,631.832153 
	C487.613892,631.852112 559.095032,631.836792 630.576233,631.835632 
	C646.717834,631.835327 656.943970,642.109375 655.949158,658.273315 
	C655.030640,673.197144 653.253174,688.068237 651.614868,703.136841 
	C651.314514,703.885864 651.253479,704.460510 651.192383,705.035156 
	C636.875427,758.587952 601.585571,792.800476 550.766113,813.556335 
	C547.343384,814.853394 544.541687,815.859070 541.407288,816.865234 
	C540.048218,817.232422 539.021851,817.598999 537.603638,817.935913 
	C534.998108,818.518616 532.784302,819.131042 530.570557,819.743469 
M368.456482,705.004883 
	C369.455627,705.004883 370.454803,705.003784 371.453949,705.005005 
	C377.978485,705.012939 377.985413,705.013184 377.988220,711.465759 
	C377.994049,724.787842 377.979431,738.109863 378.008423,751.431885 
	C378.012024,753.074219 378.230682,754.716003 378.349670,756.358032 
	C378.900513,756.332764 379.451355,756.307556 380.002197,756.282349 
	C380.002197,754.733826 380.002136,753.185242 380.002167,751.636719 
	C380.002594,737.981567 380.214752,724.321411 379.888550,710.674072 
	C379.774536,705.904785 381.382050,704.823547 385.841400,704.909912 
	C399.324921,705.171082 412.816803,705.012329 426.305328,704.987549 
	C427.978760,704.984497 429.651886,704.802979 431.325134,704.704224 
	C431.322968,704.223511 431.320801,703.742859 431.318634,703.262146 
	C429.630798,703.172058 427.943085,703.006470 426.255096,703.003784 
	C412.433472,702.982056 398.610321,702.878357 384.791199,703.065063 
	C381.100067,703.114929 379.874939,702.038757 379.925385,698.269348 
	C380.117004,683.950684 380.017975,669.627869 379.980347,655.306763 
	C379.976227,653.740112 379.667206,652.174255 379.499603,650.608093 
	C378.997559,650.658386 378.495483,650.708740 377.993439,650.759094 
	C377.993439,652.547852 377.993378,654.336670 377.993439,656.125427 
	C377.993988,669.780518 377.776978,683.440979 378.109924,697.087952 
	C378.230743,702.040649 376.572723,703.194153 371.889404,703.094910 
	C358.073975,702.802185 344.248291,702.976501 330.426727,703.009888 
	C328.823395,703.013733 327.220764,703.280396 325.617798,703.425232 
	C325.663300,703.951782 325.708771,704.478333 325.754242,705.004883 
	C339.659637,705.004883 353.565033,705.004883 368.456482,705.004883 
z"/>
<path fill="#FEFEFE" opacity="1.000000" stroke="none" 
	d="
M636.900696,832.904785 
	C646.525024,823.299255 656.702026,814.178833 665.653503,803.982544 
	C682.032898,785.325256 694.247559,764.012207 703.205444,740.100159 
	C704.256226,736.967407 705.069275,734.469971 706.035400,731.632202 
	C708.398499,722.512146 710.608643,713.732422 712.883545,705.055664 
	C712.948364,705.158752 713.174316,705.068115 713.631470,705.049500 
	C728.222107,705.030884 742.355591,705.030884 756.489136,705.030884 
	C756.560974,704.490540 756.632874,703.950195 756.704712,703.409851 
	C755.801880,703.012512 754.892700,702.257080 753.997131,702.272888 
	C744.394226,702.441956 734.787415,703.032227 725.195190,702.839355 
	C721.486267,702.764648 717.811584,700.990540 714.078247,699.566040 
	C714.645935,694.192139 715.757568,689.246094 715.789001,684.293274 
	C716.072388,639.701050 716.166382,595.107605 716.309998,550.514526 
	C716.310547,550.354614 716.224243,550.194458 716.334961,549.656921 
	C716.392212,543.173584 716.292969,537.067749 716.318481,530.509949 
	C716.458313,519.572266 716.404236,509.085907 716.502197,498.600952 
	C716.727722,474.468597 698.364868,452.517395 674.366089,451.102295 
	C649.992859,449.665161 625.485596,450.502869 600.657959,450.241089 
	C599.504700,450.222382 598.730408,450.306885 597.500610,450.288940 
	C560.387146,450.234650 523.729309,450.282776 486.687378,450.214050 
	C485.510406,450.172211 484.717560,450.247253 483.466553,450.245667 
	C472.213196,450.167572 461.417969,450.177490 450.622772,450.161865 
	C435.594116,450.140106 425.167145,439.654236 426.058289,424.556519 
	C426.936371,409.679321 428.641418,394.850983 430.164764,379.780273 
	C430.444702,379.019867 430.543488,378.480408 430.642303,377.940918 
	C442.679260,328.972290 474.097382,296.252472 517.947144,274.051483 
	C522.951782,271.517670 528.356262,269.773682 534.192383,267.389221 
	C536.876648,266.381470 538.944031,265.647980 541.381714,264.939056 
	C543.833679,264.297668 545.915405,263.631714 548.366699,263.020508 
	C550.161072,262.684723 551.585815,262.294220 553.010559,261.903687 
	C562.741699,260.773621 572.445496,259.127747 582.209106,258.610443 
	C611.186340,257.075134 639.169678,262.325012 666.113281,272.767670 
	C731.244751,298.010986 779.843994,342.306610 813.630737,402.955536 
	C842.635986,455.021271 853.528320,511.160461 847.721191,570.317261 
	C840.777527,641.050720 812.706116,702.397949 763.623352,753.930603 
	C728.459290,790.849854 686.615662,817.332886 637.707397,833.332397 
	C637.207703,833.261475 636.900696,832.904785 636.900696,832.904785 
M701.768494,377.398193 
	C699.970215,377.595459 698.172485,377.957520 696.373596,377.963745 
	C682.709839,378.010864 669.045776,377.973267 655.382019,378.007904 
	C653.789734,378.011932 652.198059,378.295288 650.606140,378.449127 
	C650.655396,378.969147 650.704712,379.489166 650.753967,380.009186 
	C652.516663,380.009186 654.279297,380.009369 656.041931,380.009125 
	C670.039124,380.007233 684.038574,380.146698 698.031982,379.914368 
	C702.067017,379.847412 703.128784,381.167358 703.070862,385.053955 
	C702.864746,398.881439 702.975891,412.713898 703.007690,426.544373 
	C703.011414,428.155396 703.269531,429.765869 703.409668,431.376587 
	C703.941406,431.332031 704.473145,431.287476 705.004883,431.242950 
	C705.004883,429.501953 705.004944,427.760986 705.004883,426.020020 
	C705.004700,412.356110 705.135986,398.690094 704.921448,385.029572 
	C704.859802,381.102661 705.992615,379.853241 709.987488,379.918335 
	C723.814392,380.143677 737.647156,380.017639 751.477661,379.987823 
	C753.106934,379.984314 754.735657,379.748230 756.364624,379.619965 
	C756.324646,379.076721 756.284729,378.533478 756.244751,377.990234 
	C754.522766,377.990234 752.800781,377.990295 751.078796,377.990234 
	C737.581543,377.989624 724.081116,377.825226 710.588806,378.083496 
	C706.288391,378.165802 704.800964,377.105896 704.897034,372.562317 
	C705.192932,358.571381 705.016418,344.570190 704.988770,330.573059 
	C704.985535,328.929443 704.766296,327.286194 704.647217,325.642792 
	C704.094849,325.679260 703.542542,325.715759 702.990234,325.752228 
	C702.990234,327.291107 702.990295,328.829956 702.990295,330.368835 
	C702.990295,340.200195 703.057129,350.032196 702.964539,359.862671 
	C702.911560,365.495667 702.599548,371.126190 701.768494,377.398193 
z"/>
<path fill="#1C2335" opacity="1.000000" stroke="none" 
	d="
M932.007812,546.889099 
	C932.004578,558.223877 926.746948,562.624817 917.999512,558.763672 
	C915.876221,557.826477 914.360840,555.512024 912.565979,553.830811 
	C912.889221,553.202454 913.212524,552.574036 913.535828,551.945679 
	C915.682434,552.500549 917.976196,552.744568 919.944702,553.675781 
	C923.900391,555.547119 925.882751,554.402100 926.472961,548.525635 
	C922.414795,551.377319 918.702576,551.798645 915.100952,548.522888 
	C911.937988,545.646118 910.546997,539.263123 912.981201,535.228821 
	C915.278625,531.421265 918.444702,529.001648 923.276917,531.177979 
	C924.019043,531.512268 925.016418,532.030273 925.628540,531.788025 
	C932.378662,529.116821 932.279663,533.327332 932.034912,537.935486 
	C931.885315,540.752197 932.007629,543.583313 932.007812,546.889099 
M920.257629,536.537781 
	C917.879456,539.204529 916.596375,542.100464 920.372192,544.371399 
	C921.551086,545.080383 924.205444,544.726929 925.285400,543.805847 
	C926.299988,542.940491 926.960754,540.010864 926.295044,539.186890 
	C925.106628,537.715942 922.802368,537.146484 920.257629,536.537781 
z"/>
<path fill="#1C2335" opacity="1.000000" stroke="none" 
	d="
M862.816040,550.951904 
	C856.195007,550.907776 853.365112,544.916748 853.091736,539.525330 
	C852.878967,535.331787 856.393372,530.989380 860.652710,530.390320 
	C862.763977,530.093506 865.026733,530.873962 867.846680,531.250610 
	C867.909668,529.911438 867.559204,528.142029 868.182983,526.838989 
	C868.743896,525.667236 870.640259,524.089783 871.471985,524.331055 
	C872.808899,524.718689 874.699402,526.450806 874.707764,527.626587 
	C874.753967,534.147400 874.167053,540.669922 874.080261,547.195679 
	C874.038635,550.323608 872.971741,551.286926 869.880127,550.825378 
	C867.709595,550.501526 865.434570,550.877502 862.816040,550.951904 
M866.704773,544.205017 
	C867.133850,542.981140 867.769226,541.786987 867.950500,540.527466 
	C868.372986,537.591980 866.581116,535.680603 864.032104,536.304871 
	C862.420654,536.699463 860.292358,539.205200 860.229431,540.834778 
	C860.092407,544.385620 862.720581,545.488647 866.704773,544.205017 
z"/>
<path fill="#1C2335" opacity="1.000000" stroke="none" 
	d="
M533.159668,211.748642 
	C533.049622,208.095749 532.561951,204.769852 533.155762,201.649780 
	C533.666748,198.965607 534.782593,195.697540 536.770264,194.170486 
	C539.250305,192.265182 542.527100,190.687469 546.315918,192.756607 
	C553.453247,196.654495 554.187500,197.952576 551.974548,205.600250 
	C551.747253,206.385620 551.948120,207.399277 552.229370,208.210190 
	C553.835999,212.842163 553.194458,213.904556 548.494080,213.967087 
	C544.837463,214.015732 541.168091,214.142792 537.528137,213.891006 
	C536.069763,213.790131 534.675049,212.767853 533.159668,211.748642 
M542.492920,199.012177 
	C538.800598,199.124451 538.479736,201.799713 539.237366,204.250427 
	C539.607422,205.447189 542.049805,207.056000 543.066833,206.766464 
	C544.826477,206.265503 546.206665,204.431458 547.746033,203.156601 
	C546.267761,201.772751 544.789551,200.388901 542.492920,199.012177 
z"/>
<path fill="#1C2335" opacity="1.000000" stroke="none" 
	d="
M164.229340,532.970703 
	C162.970886,532.533630 162.132736,531.950500 161.207062,531.721985 
	C160.022217,531.429504 158.766846,531.422729 157.541870,531.292786 
	C158.249115,532.435852 158.746124,533.828552 159.723160,534.651184 
	C160.685501,535.461426 162.169815,535.619934 163.363297,536.193115 
	C167.864655,538.354919 170.072556,542.375854 168.591125,545.602478 
	C166.914825,549.253540 160.131577,552.335571 156.631622,550.535095 
	C154.031189,549.197327 151.905304,546.937073 149.568054,545.087708 
	C149.869690,544.341492 150.171326,543.595276 150.472961,542.848999 
	C152.920380,543.352905 155.359390,543.904297 157.818848,544.340271 
	C159.033615,544.555664 160.286118,544.558228 161.521561,544.657043 
	C160.832901,543.432861 160.283356,542.092590 159.398178,541.032471 
	C158.940735,540.484680 157.893250,540.416443 157.102539,540.162109 
	C153.676804,539.060303 150.527451,537.715637 149.992020,533.487549 
	C149.559097,530.068787 150.845306,526.956970 153.932861,526.294250 
	C157.396103,525.551025 161.249130,526.060364 164.827942,526.654663 
	C166.643387,526.956177 168.228790,528.642944 169.918198,529.703430 
	C169.558487,530.388611 169.198761,531.073792 168.839050,531.758972 
	C167.429611,532.166748 166.020187,532.574463 164.229340,532.970703 
z"/>
<path fill="#1C2335" opacity="1.000000" stroke="none" 
	d="
M551.571045,869.775757 
	C551.868652,874.019653 552.692627,878.131226 551.769043,881.803101 
	C551.084534,884.524536 548.568726,887.389160 546.085693,888.919373 
	C541.892456,891.503479 537.326782,889.952515 534.410828,886.508484 
	C532.793213,884.597778 532.922913,881.133301 532.475769,878.335510 
	C532.226257,876.774231 532.680298,875.083496 532.340454,873.557251 
	C531.580383,870.143494 532.124268,867.779175 536.221313,868.058716 
	C541.271606,868.403442 546.306152,868.978882 551.571045,869.775757 
M546.647766,879.455139 
	C545.359802,877.562927 544.071777,875.670715 542.045349,872.693726 
	C539.981567,875.775635 538.357361,877.584534 537.605835,879.703064 
	C537.383362,880.330139 539.733215,882.829102 540.707153,882.719421 
	C542.672729,882.498108 544.503113,881.076172 546.647766,879.455139 
z"/>
<path fill="#1C2335" opacity="1.000000" stroke="none" 
	d="
M534.735352,932.005005 
	C530.407654,932.558960 527.831055,931.070435 527.070251,927.077698 
	C525.877319,920.817505 527.570068,916.291748 531.863403,914.909424 
	C532.531067,914.694458 534.629456,916.348267 534.601501,917.082092 
	C534.542725,918.625854 533.273193,920.085022 532.958008,921.669922 
	C532.720093,922.866272 533.192688,924.203918 533.348999,925.478638 
	C534.470215,924.731934 535.806274,924.165161 536.635986,923.174438 
	C537.176819,922.528564 536.837769,921.219482 537.141602,920.288696 
	C538.438232,916.316650 540.650818,913.493713 545.408691,913.987854 
	C549.832153,914.447205 551.254211,917.231995 552.167358,921.264709 
	C552.978333,924.846130 551.823792,927.525269 549.799744,929.862305 
	C548.882324,930.921570 546.729919,930.911194 545.137756,931.386047 
	C545.003357,929.881287 544.644897,928.354431 544.790771,926.877380 
	C544.977356,924.988708 545.570679,923.140198 545.988647,921.274414 
	C544.566895,922.710205 542.691223,923.916565 541.823486,925.632507 
	C540.301697,928.641846 539.382690,931.948181 534.735352,932.005005 
z"/>
<path fill="#1C2335" opacity="1.000000" stroke="none" 
	d="
M201.276779,550.868286 
	C194.240067,548.473633 191.822998,544.460083 193.171753,537.987366 
	C194.260849,532.760742 196.977249,530.737671 202.207230,530.952393 
	C205.892975,531.103760 209.589981,530.981628 213.940063,530.981628 
	C213.940063,536.517639 214.043793,542.410828 213.826508,548.292114 
	C213.794479,549.158997 211.621567,550.790894 211.482758,550.686096 
	C208.088226,548.124146 204.905319,550.903381 201.276779,550.868286 
M203.580505,544.939697 
	C205.028137,543.511475 207.243637,542.273071 207.659760,540.589783 
	C207.948593,539.421448 206.037827,537.163696 204.574753,536.315613 
	C203.718979,535.819580 200.576416,537.167542 200.587967,537.633301 
	C200.643387,539.868591 201.404007,542.091064 201.977325,544.301636 
	C202.033981,544.520081 202.519791,544.627258 203.580505,544.939697 
z"/>
<path fill="#1C2335" opacity="1.000000" stroke="none" 
	d="
M550.997559,164.791870 
	C551.590393,161.862839 552.185730,159.321579 552.781067,156.780304 
	C552.141296,156.553711 551.501526,156.327103 550.861694,156.100510 
	C549.915894,157.863556 548.854187,159.575455 548.048828,161.400467 
	C546.445374,165.033890 544.234741,168.788116 540.121704,168.492783 
	C537.827454,168.328049 534.953918,165.389114 533.778748,162.994873 
	C531.966919,159.303558 532.277527,155.040176 535.668701,152.002106 
	C536.767944,151.017319 538.770325,151.040543 540.359558,150.602692 
	C540.291199,152.309570 540.376404,154.043823 540.079407,155.709961 
	C539.959534,156.382263 538.632812,156.840714 538.515503,157.511871 
	C538.342346,158.502609 538.758911,159.596405 538.924377,160.646332 
	C539.944885,160.377014 541.420837,160.432846 541.892700,159.771866 
	C542.930298,158.318451 543.521362,156.526657 544.185913,154.830353 
	C545.859314,150.558685 549.084595,149.092545 553.318909,150.122177 
	C558.735840,151.439407 558.455566,156.635895 558.478577,160.303177 
	C558.493347,162.645233 555.052612,165.009048 553.161133,167.363098 
	C552.440796,166.635284 551.720398,165.907471 550.997559,164.791870 
z"/>
<path fill="#262E3F" opacity="1.000000" stroke="none" 
	d="
M705.882324,731.972473 
	C705.069275,734.469971 704.256226,736.967407 703.206421,739.729370 
	C702.970093,730.397766 702.756287,720.794983 703.062195,711.208740 
	C703.213379,706.471436 701.752808,704.830444 696.886292,704.920959 
	C681.963623,705.198730 667.032715,705.032959 651.648682,705.037415 
	C651.253479,704.460510 651.314514,703.885864 652.092896,703.140381 
	C667.955505,702.967163 683.102295,702.847290 698.244995,703.045471 
	C702.025513,703.094910 703.075012,701.919617 703.027222,698.215271 
	C702.842529,683.904663 702.949219,669.590027 702.993713,655.277039 
	C702.998657,653.699158 703.301453,652.122192 703.466125,650.544800 
	C703.983521,650.597168 704.500977,650.649536 705.018433,650.701843 
	C705.018433,652.471191 705.018250,654.240479 705.018433,656.009827 
	C705.019775,669.657227 705.010498,683.304688 705.027527,696.952087 
	C705.035217,703.096008 705.345459,703.332336 711.200684,702.199890 
	C711.848450,702.074524 712.525635,702.101624 713.248901,702.433594 
	C713.263916,703.562195 713.219116,704.315125 713.174316,705.068115 
	C713.174316,705.068115 712.948364,705.158752 712.446655,705.076416 
	C709.651367,705.653320 705.382751,706.265625 705.365723,706.979126 
	C705.167603,715.301392 705.609619,723.638977 705.882324,731.972473 
z"/>
<path fill="#1A2134" opacity="1.000000" stroke="none" 
	d="
M540.337036,854.993408 
	C535.106262,854.293579 532.805603,851.123047 532.055054,846.681763 
	C531.248230,841.908020 533.197205,838.154602 537.186340,835.649780 
	C540.374817,833.647644 542.879517,835.196350 543.007385,838.988647 
	C543.091309,841.476501 543.089233,843.967163 543.163818,846.455383 
	C543.172913,846.756775 543.420471,847.051025 543.560364,847.347290 
	C547.157227,846.909058 547.474182,846.185364 546.330200,842.876770 
	C545.540649,840.593201 545.260986,838.133301 544.574280,834.911438 
	C551.717590,838.687195 553.452576,842.102722 552.025024,847.772522 
	C550.722229,852.946899 547.502563,855.011719 540.337036,854.993408 
z"/>
<path fill="#262E3F" opacity="1.000000" stroke="none" 
	d="
M430.196442,377.925873 
	C430.543488,378.480408 430.444702,379.019867 429.697144,379.777405 
	C414.384827,380.001648 399.719574,380.128296 385.058655,379.933014 
	C381.180328,379.881409 379.847046,380.898682 379.917938,384.957733 
	C380.159424,398.783997 380.023682,412.617065 379.997955,426.447479 
	C379.994873,428.095032 379.782379,429.742188 379.666962,431.389526 
	C379.172089,431.363708 378.677216,431.337891 378.182343,431.312103 
	C378.113403,429.775543 377.986725,428.239075 377.984589,426.702423 
	C377.967102,414.204987 377.930298,401.707397 377.984344,389.210205 
	C378.032471,378.085968 377.967133,380.343231 368.795624,379.600403 
	C368.866364,378.836517 369.006256,378.406891 369.591797,377.983337 
	C379.157745,377.938354 377.883087,378.850067 377.985199,370.084503 
	C378.015991,367.441498 378.088409,364.793793 377.974731,362.155426 
	C377.757446,357.111664 377.420319,352.073090 377.132935,347.032349 
	C377.492828,345.788788 377.852722,344.545197 378.484009,343.119843 
	C379.172821,344.617737 379.924164,346.292084 379.950989,347.977997 
	C380.080780,356.139099 380.213989,364.310272 379.927094,372.463165 
	C379.804291,375.953125 381.247345,377.271393 384.306946,377.620117 
	C385.624023,377.770233 386.948151,377.958038 388.269135,377.958435 
	C402.096283,377.962402 415.923431,377.931824 430.196442,377.925873 
z"/>
<path fill="#1A2134" opacity="1.000000" stroke="none" 
	d="
M536.742065,228.394257 
	C539.334778,227.777924 541.603821,227.068130 543.877686,227.052109 
	C548.200195,227.021652 552.387207,230.477158 552.964905,234.129074 
	C553.889404,239.974152 551.657959,244.640915 547.021240,246.425568 
	C543.896606,247.628220 541.791016,247.262802 541.965027,243.156631 
	C542.097595,240.028244 541.991333,236.889755 541.991333,233.340851 
	C538.314087,234.185394 537.564087,235.942108 538.542908,238.835526 
	C539.238525,240.891769 539.733887,243.015747 540.433289,245.520035 
	C533.631287,244.156097 530.692200,238.785934 533.215698,233.647324 
	C534.087097,231.872894 535.341187,230.286423 536.742065,228.394257 
z"/>
<path fill="#1C2335" opacity="1.000000" stroke="none" 
	d="
M888.979980,543.827087 
	C888.981689,540.191223 888.596619,536.954346 889.163269,533.893738 
	C889.414978,532.534546 891.494019,530.696472 892.908264,530.537048 
	C896.008240,530.187744 899.214294,530.943054 902.375122,530.924561 
	C905.506104,530.906189 907.750366,532.072205 908.135498,535.190002 
	C908.661316,539.446655 908.934204,543.770935 908.783264,548.047363 
	C908.748474,549.032166 906.551208,549.940613 905.349121,550.884216 
	C904.559875,549.711304 903.316162,548.621094 903.084045,547.346680 
	C902.702393,545.250122 903.490967,542.856934 902.824402,540.919739 
	C902.191956,539.081909 900.324890,537.668823 899.000854,536.068970 
	C897.699341,537.557800 896.008484,538.868286 895.219299,540.591736 
	C894.584290,541.978455 895.077881,543.866333 895.002930,545.528809 
	C894.902527,547.755981 895.657898,550.688354 892.133545,550.821289 
	C888.590942,550.954773 889.055969,548.097229 888.985901,545.797119 
	C888.970703,545.297791 888.981628,544.797607 888.979980,543.827087 
z"/>
<path fill="#1C2335" opacity="1.000000" stroke="none" 
	d="
M541.739990,816.864746 
	C544.541687,815.859070 547.343384,814.853394 550.525208,813.819702 
	C551.261292,819.032898 551.772766,824.272827 551.811340,829.516296 
	C551.817322,830.336609 549.699219,831.842285 548.517883,831.889221 
	C542.370361,832.133423 536.199402,832.182922 530.057617,831.877625 
	C528.671082,831.808594 526.553955,830.289185 526.192566,829.029968 
	C525.385437,826.217896 527.674377,825.931702 529.866394,825.967712 
	C530.834900,825.983643 531.807190,825.771057 533.370911,825.595703 
	C532.546509,823.577698 531.855042,821.885193 530.867065,819.968079 
	C532.784302,819.131042 534.998108,818.518616 537.569214,818.289246 
	C537.782715,819.145508 537.563721,819.609924 537.506836,820.093445 
	C537.085266,823.674988 539.359802,825.471375 542.303589,825.692383 
	C543.734192,825.799744 546.733032,823.457581 546.583679,822.967407 
	C545.951416,820.892578 544.441711,819.070129 543.151855,817.225891 
	C542.940735,816.924011 542.223389,816.976196 541.739990,816.864746 
z"/>
<path fill="#1C2335" opacity="1.000000" stroke="none" 
	d="
M176.609375,531.300354 
	C184.692291,528.850769 189.675400,531.465881 190.574570,538.942505 
	C187.898560,538.140442 185.497604,537.201416 183.008392,536.759827 
	C181.594604,536.509094 178.890717,536.776367 178.749405,537.322754 
	C178.244888,539.273621 178.209167,541.565063 178.816727,543.465271 
	C179.029114,544.129456 181.656998,544.377991 183.110291,544.207336 
	C185.437378,543.934021 187.704803,543.153015 190.641693,542.427429 
	C190.095200,547.339050 187.785370,549.789429 184.361832,550.827026 
	C179.863144,552.190491 174.091446,549.982422 172.205124,545.225037 
	C171.053406,542.320435 172.146484,538.342224 172.850372,534.975586 
	C173.132538,533.626099 175.075928,532.623901 176.609375,531.300354 
z"/>
<path fill="#1C2335" opacity="1.000000" stroke="none" 
	d="
M541.011353,264.914490 
	C538.944031,265.647980 536.876648,266.381470 534.436401,267.123779 
	C534.027466,264.298615 534.018799,261.463898 533.941040,258.631104 
	C533.911926,257.572205 534.012695,256.364502 533.551697,255.489365 
	C532.032654,252.605774 533.108643,250.098434 536.293762,250.035980 
	C542.741394,249.909515 549.215698,249.706818 555.628113,250.198914 
	C557.298218,250.327072 558.780701,252.899979 560.349426,254.350021 
	C560.009827,254.803406 559.670166,255.256775 559.330566,255.710144 
	C556.771606,255.913193 554.212585,256.116241 551.186157,256.356354 
	C551.840515,258.202362 552.370422,259.697205 552.955444,261.547852 
	C551.585815,262.294220 550.161072,262.684723 548.358398,262.627869 
	C547.941833,261.529388 548.159912,260.648010 547.819092,260.267975 
	C546.498474,258.795563 545.183350,257.108643 543.486206,256.276428 
	C542.697998,255.889877 540.121155,257.098083 539.961487,257.902222 
	C539.609985,259.672974 540.260254,261.649200 540.544983,263.535065 
	C540.616333,264.007538 540.851501,264.455322 541.011353,264.914490 
z"/>
<path fill="#1C2335" opacity="1.000000" stroke="none" 
	d="
M532.010986,900.221741 
	C533.872009,897.008911 535.730774,894.202820 537.589539,891.396729 
	C538.385071,891.732178 539.180542,892.067688 539.976074,892.403137 
	C539.554199,894.523682 538.991150,896.628662 538.755920,898.769714 
	C538.573669,900.428955 538.374634,903.404785 538.923462,903.588806 
	C540.896301,904.250793 543.183228,903.976807 545.351440,904.056458 
	C545.399048,902.369812 545.695190,900.643188 545.432251,899.006470 
	C545.094238,896.902832 544.307434,894.871399 543.634949,892.534241 
	C550.157166,892.919861 552.207275,895.607056 552.016052,902.304321 
	C551.861084,907.731384 547.900879,911.812134 542.647583,911.957886 
	C536.880249,912.117859 532.328308,907.270447 532.010986,900.221741 
z"/>
<path fill="#1C2335" opacity="1.000000" stroke="none" 
	d="
M534.346069,174.580124 
	C539.206909,170.180984 545.737854,169.702347 549.794983,172.910065 
	C553.507751,175.845581 553.853455,179.992142 552.651917,183.707230 
	C551.800842,186.338867 548.860474,188.294800 546.852661,190.552338 
	C546.140076,190.128387 545.427490,189.704437 544.714905,189.280472 
	C545.350769,187.132965 546.216736,185.020279 546.548767,182.826782 
	C546.807861,181.114304 546.987976,178.215088 546.165527,177.772873 
	C544.719849,176.995514 542.192871,177.159042 540.680908,177.972916 
	C539.761292,178.467911 539.491211,180.962555 539.650879,182.483124 
	C539.888123,184.740524 540.764648,186.930786 541.446594,189.434387 
	C533.553223,189.073608 531.367554,184.029541 534.346069,174.580124 
z"/>
<path fill="#1A2134" opacity="1.000000" stroke="none" 
	d="
M218.024536,547.458130 
	C218.007629,540.704956 217.837097,534.388184 218.136703,528.093811 
	C218.202896,526.703247 219.710129,524.537354 220.942169,524.215576 
	C223.829788,523.461365 225.034485,525.354614 224.998062,528.246582 
	C224.920731,534.388306 225.096558,540.535706 224.886398,546.671204 
	C224.838989,548.055481 223.637314,549.400208 222.966995,550.763184 
	C221.324722,549.809631 219.682465,548.856079 218.024536,547.458130 
z"/>
<path fill="#1A2134" opacity="1.000000" stroke="none" 
	d="
M534.268677,217.283844 
	C541.423462,217.170868 548.179565,217.275253 554.932312,217.167297 
	C557.104431,217.132584 558.965515,216.855469 559.038574,219.891846 
	C559.097900,222.358734 558.773987,224.097855 555.630310,224.023773 
	C549.808533,223.886581 543.981140,224.009201 538.156250,223.983215 
	C532.526428,223.958115 532.110168,223.297684 534.268677,217.283844 
z"/>
<path fill="#1C2335" opacity="1.000000" stroke="none" 
	d="
M527.513000,863.838684 
	C525.230286,858.899597 525.669800,858.081055 530.385986,858.032349 
	C536.366699,857.970459 542.350647,858.110840 548.328796,857.972534 
	C551.182251,857.906494 552.246216,859.028564 551.992859,861.804688 
	C551.731628,864.666809 550.237305,864.428284 547.865356,864.281677 
	C541.243713,863.872620 534.587585,864.022278 527.513000,863.838684 
z"/>
<path fill="#1A2134" opacity="1.000000" stroke="none" 
	d="
M884.966675,547.515869 
	C883.547485,548.947632 882.142395,549.932190 880.737244,550.916748 
	C879.832153,549.586121 878.292664,548.321411 878.146240,546.912048 
	C877.772461,543.315674 878.009338,539.654724 878.021790,536.019714 
	C878.041382,530.302979 878.048279,530.302979 884.980713,531.038147 
	C884.980713,536.304749 884.980713,541.686707 884.966675,547.515869 
z"/>
<path fill="#1C2335" opacity="1.000000" stroke="none" 
	d="
M232.476837,532.028076 
	C232.873199,537.350891 232.929031,542.724915 232.900101,548.561340 
	C225.193390,545.132446 224.877380,537.246643 232.476837,532.028076 
z"/>
<path fill="#1A2134" opacity="1.000000" stroke="none" 
	d="
M884.081299,528.238647 
	C881.913818,527.666016 879.961670,527.000977 878.274658,525.921631 
	C878.008179,525.751160 878.751282,522.831116 879.353210,522.702209 
	C880.949829,522.360229 883.301880,522.258789 884.253662,523.188049 
	C885.079285,523.994141 884.398987,526.342712 884.081299,528.238647 
z"/>
<path fill="#FEFEFE" opacity="1.000000" stroke="none" 
	d="
M444.648743,248.555206 
	C444.941559,248.329666 445.377869,248.296051 445.814178,248.262451 
	C445.774597,248.500931 445.735016,248.739410 445.402710,249.041977 
	C445.109955,249.106049 444.792267,248.747147 444.648743,248.555206 
z"/>
<path fill="#FEFEFE" opacity="1.000000" stroke="none" 
	d="
M637.348938,833.449707 
	C637.045837,833.680237 636.601501,833.722534 636.157166,833.764893 
	C636.203857,833.520447 636.250549,833.276062 636.598999,832.968201 
	C636.900696,832.904785 637.207703,833.261475 637.348938,833.449707 
z"/>
<path fill="#030B1D" opacity="1.000000" stroke="none" 
	d="
M368.864746,379.934601 
	C377.967133,380.343231 378.032471,378.085968 377.984344,389.210205 
	C377.930298,401.707397 377.967102,414.204987 377.984589,426.702423 
	C377.986725,428.239075 378.113403,429.775543 378.182343,431.312103 
	C378.677216,431.337891 379.172089,431.363708 379.666962,431.389526 
	C379.782379,429.742188 379.994873,428.095032 379.997955,426.447479 
	C380.023682,412.617065 380.159424,398.783997 379.917938,384.957733 
	C379.847046,380.898682 381.180328,379.881409 385.058655,379.933014 
	C399.719574,380.128296 414.384827,380.001648 429.516052,379.998352 
	C428.641418,394.850983 426.936371,409.679321 426.058289,424.556519 
	C425.167145,439.654236 435.594116,450.140106 450.622772,450.161865 
	C461.417969,450.177490 472.213196,450.167572 483.381989,450.551514 
	C481.813568,453.174988 479.995026,455.538635 477.909546,457.637024 
	C464.434296,471.195374 450.895355,484.690399 437.396301,498.225189 
	C436.237915,499.386658 435.217926,500.686218 434.133606,501.921600 
	C434.443237,502.195099 434.752869,502.468597 435.062531,502.742096 
	C436.040344,501.963104 437.103638,501.269775 437.983307,500.392395 
	C452.576996,485.836761 467.166412,471.276642 481.701050,456.662109 
	C483.646393,454.706024 485.288818,452.448700 487.071503,450.330872 
	C523.729309,450.282776 560.387146,450.234650 597.490967,450.630676 
	C598.596130,452.187195 599.059448,453.494537 599.943665,454.382996 
	C615.182617,469.694031 630.466248,484.960663 645.776917,500.200073 
	C646.446289,500.866333 647.467285,501.179321 648.324524,501.656860 
	C647.179504,498.781311 645.642212,496.435638 643.693237,494.505615 
	C630.493896,481.434601 617.175171,468.483887 603.998413,455.390289 
	C602.660767,454.061066 602.007690,452.042816 601.036987,450.344299 
	C625.485596,450.502869 649.992859,449.665161 674.366089,451.102295 
	C698.364868,452.517395 716.727722,474.468597 716.502197,498.600952 
	C716.404236,509.085907 716.458313,519.572266 715.948425,530.565247 
	C710.382751,533.260193 708.269775,536.922241 709.118103,542.764648 
	C709.696167,546.745850 711.310730,550.058167 716.178467,550.034424 
	C716.224243,550.194458 716.310547,550.354614 716.309998,550.514526 
	C716.166382,595.107605 716.072388,639.701050 715.789001,684.293274 
	C715.757568,689.246094 714.645935,694.192139 713.940552,699.815979 
	C713.626953,701.013123 713.408081,701.535583 713.189209,702.058044 
	C712.525635,702.101624 711.848450,702.074524 711.200684,702.199890 
	C705.345459,703.332336 705.035217,703.096008 705.027527,696.952087 
	C705.010498,683.304688 705.019775,669.657227 705.018433,656.009827 
	C705.018250,654.240479 705.018433,652.471191 705.018433,650.701843 
	C704.500977,650.649536 703.983521,650.597168 703.466125,650.544800 
	C703.301453,652.122192 702.998657,653.699158 702.993713,655.277039 
	C702.949219,669.590027 702.842529,683.904663 703.027222,698.215271 
	C703.075012,701.919617 702.025513,703.094910 698.244995,703.045471 
	C683.102295,702.847290 667.955505,702.967163 652.332153,702.966003 
	C653.253174,688.068237 655.030640,673.197144 655.949158,658.273315 
	C656.943970,642.109375 646.717834,631.835327 630.576233,631.835632 
	C559.095032,631.836792 487.613892,631.852112 416.132721,631.832153 
	C389.195679,631.824646 367.328674,613.064880 365.712433,587.852295 
	C364.925507,575.576843 365.589874,563.208435 366.164062,550.426514 
	C367.408722,549.578918 368.663635,549.205688 368.677063,548.792053 
	C368.850189,543.472839 368.948242,538.144043 368.752747,532.829224 
	C368.729340,532.193176 366.866302,531.624756 365.855957,531.025024 
	C365.744415,526.712219 365.540222,522.399475 365.536194,518.086609 
	C365.508148,488.125732 365.226471,458.160767 365.642303,428.205658 
	C365.861176,412.440552 367.322327,396.692688 368.379578,380.501099 
	C368.536591,380.065155 368.864746,379.934601 368.864746,379.934601 
M546.622375,568.363220 
	C561.362183,564.663025 570.575439,552.033264 568.836975,537.911072 
	C567.096313,523.772095 555.542603,513.246338 541.492920,512.999939 
	C525.349854,512.716736 512.160034,526.336609 513.012268,542.409119 
	C513.901794,559.183838 528.301941,570.675415 546.622375,568.363220 
M479.955780,531.729065 
	C473.592743,516.199097 458.342621,509.181152 443.489288,514.947571 
	C429.246918,520.476868 422.173798,536.047119 427.282593,550.623779 
	C432.219543,564.710205 448.105988,572.291931 462.644318,567.500000 
	C476.950043,562.784729 484.604095,547.455078 479.955780,531.729065 
M608.158813,521.670776 
	C607.429077,522.571594 606.661438,523.444519 605.975525,524.377563 
	C598.053955,535.152100 598.717834,549.541992 607.592773,559.720764 
	C615.906128,569.255676 630.394531,571.766602 641.689819,565.630127 
	C653.471619,559.229309 658.864136,545.900879 655.159058,532.913879 
	C649.739258,513.916382 624.641541,505.563568 608.158813,521.670776 
M401.315186,549.627563 
	C404.060028,549.627563 406.804871,549.627563 409.737000,549.627563 
	C410.184875,552.554138 410.156982,555.055298 406.444977,554.840332 
	C405.132690,554.764282 403.953705,553.264160 402.591034,552.954468 
	C400.952209,552.581909 399.182404,552.785522 397.469330,552.739746 
	C398.114410,554.438171 398.411865,557.312500 399.466858,557.624390 
	C403.310822,558.760742 407.699524,560.219177 411.329468,559.320618 
	C415.140289,558.377197 417.285126,554.360718 417.035980,549.773376 
	C416.837555,546.119873 416.993469,542.447083 416.993469,538.782898 
	C416.993439,531.643921 416.993988,531.648804 409.939545,531.805847 
	C409.456573,531.816650 408.958466,531.718994 408.487152,531.596130 
	C401.964752,529.894775 399.167725,530.920715 396.692535,535.941101 
	C394.421875,540.546631 396.055267,546.144409 401.315186,549.627563 
M666.544800,545.061340 
	C668.270813,549.033447 671.539917,550.707153 675.631226,550.940063 
	C679.734619,551.173706 684.351379,548.109497 684.976501,545.031494 
	C685.966064,540.158813 683.624878,537.547302 679.231812,536.163757 
	C677.817444,535.718323 676.278320,535.278625 675.170837,534.376465 
	C674.334534,533.695190 674.094360,532.282104 673.588867,531.194702 
	C674.878357,531.143066 676.239441,530.803223 677.442017,531.101807 
	C679.709351,531.664734 681.885437,532.595520 685.048889,533.706909 
	C682.728821,527.098450 679.129761,524.369324 674.571106,525.155701 
	C671.060608,525.761230 666.866150,526.133789 666.132751,530.751343 
	C665.266479,536.206055 669.477295,538.167908 673.388062,540.166870 
	C673.684326,540.318298 674.068848,540.379822 674.276855,540.607117 
	C675.426697,541.863770 676.534424,543.158936 677.656616,544.440857 
	C675.975098,544.315063 674.278137,544.290405 672.615845,544.038208 
	C670.470764,543.712769 668.184998,540.015930 666.544800,545.061340 
M374.592255,531.101868 
	C374.236725,537.298279 373.829742,543.493347 373.660034,549.694763 
	C373.650360,550.047546 375.785095,550.991333 376.561066,550.699768 
	C377.553375,550.326965 378.678833,549.064636 378.857758,548.031616 
	C379.221405,545.932373 378.985199,543.729797 379.001801,541.569763 
	C379.022430,538.888916 378.640961,535.841431 382.758331,536.054810 
	C386.220093,536.234192 387.041138,538.599854 386.985901,541.605042 
	C386.930389,544.624817 386.973724,547.646362 386.973724,550.612610 
	C391.983673,550.846436 393.406311,548.947449 393.032959,545.190247 
	C392.820374,543.050903 393.045044,540.871765 392.983643,538.713074 
	C392.840698,533.687256 389.844940,530.910339 384.742798,530.968079 
	C381.642700,531.003235 378.542084,530.993103 374.592255,531.101868 
M694.537842,550.066528 
	C700.974792,551.791565 704.809937,549.711182 706.721069,542.567322 
	C704.119141,543.015930 701.915222,543.440125 699.696472,543.762756 
	C698.231628,543.975769 695.550476,544.409790 695.460449,544.116516 
	C694.816467,542.019592 694.458191,539.741699 694.634827,537.572205 
	C694.666626,537.182251 697.613586,536.726562 699.178040,536.833862 
	C701.666626,537.004822 704.124451,537.623901 707.500916,538.210815 
	C704.335022,531.776062 700.241760,529.883545 694.005920,531.059875 
	C689.893127,531.835754 687.868408,534.833313 687.113953,538.647461 
	C686.128418,543.630554 688.448059,547.388489 694.537842,550.066528 
M625.499451,600.999451 
	C616.267090,610.239197 607.034790,619.478943 597.802490,628.718689 
	C598.353760,629.250061 598.905090,629.781433 599.456421,630.312866 
	C616.012451,613.668030 632.568542,597.023193 649.124634,580.378357 
	C648.627197,579.861694 648.129761,579.345032 647.632324,578.828369 
	C640.422791,586.053467 633.213257,593.278625 625.499451,600.999451 
M474.540192,620.963196 
	C477.667725,623.905396 480.795258,626.847595 483.922791,629.789734 
	C483.774414,629.917175 483.626068,630.044617 483.477692,630.171997 
	C467.205292,613.999695 450.932892,597.827393 434.660492,581.655029 
	C434.764252,581.540588 434.868011,581.426086 434.971802,581.311584 
	C447.993927,594.362183 461.016083,607.412842 474.540192,620.963196 
z"/>
<path fill="#EDEDED" opacity="1.000000" stroke="none" 
	d="
M367.963440,705.004883 
	C353.565033,705.004883 339.659637,705.004883 325.754242,705.004883 
	C325.708771,704.478333 325.663300,703.951782 325.617798,703.425232 
	C327.220764,703.280396 328.823395,703.013733 330.426727,703.009888 
	C344.248291,702.976501 358.073975,702.802185 371.889404,703.094910 
	C376.572723,703.194153 378.230743,702.040649 378.109924,697.087952 
	C377.776978,683.440979 377.993988,669.780518 377.993439,656.125427 
	C377.993378,654.336670 377.993439,652.547852 377.993439,650.759094 
	C378.495483,650.708740 378.997559,650.658386 379.499603,650.608093 
	C379.667206,652.174255 379.976227,653.740112 379.980347,655.306763 
	C380.017975,669.627869 380.117004,683.950684 379.925385,698.269348 
	C379.874939,702.038757 381.100067,703.114929 384.791199,703.065063 
	C398.610321,702.878357 412.433472,702.982056 426.255096,703.003784 
	C427.943085,703.006470 429.630798,703.172058 431.318634,703.262146 
	C431.320801,703.742859 431.322968,704.223511 431.325134,704.704224 
	C429.651886,704.802979 427.978760,704.984497 426.305328,704.987549 
	C412.816803,705.012329 399.324921,705.171082 385.841400,704.909912 
	C381.382050,704.823547 379.774536,705.904785 379.888550,710.674072 
	C380.214752,724.321411 380.002594,737.981567 380.002167,751.636719 
	C380.002136,753.185242 380.002197,754.733826 380.002197,756.282349 
	C379.451355,756.307556 378.900513,756.332764 378.349670,756.358032 
	C378.230682,754.716003 378.012024,753.074219 378.008423,751.431885 
	C377.979431,738.109863 377.994049,724.787842 377.988220,711.465759 
	C377.985413,705.013184 377.978485,705.012939 371.453949,705.005005 
	C370.454803,705.003784 369.455627,705.004883 367.963440,705.004883 
z"/>
<path fill="#0B1222" opacity="1.000000" stroke="none" 
	d="
M376.971863,347.366150 
	C377.420319,352.073090 377.757446,357.111664 377.974731,362.155426 
	C378.088409,364.793793 378.015991,367.441498 377.985199,370.084503 
	C377.883087,378.850067 379.157745,377.938354 369.538452,377.732849 
	C368.986938,377.313812 368.934448,377.151337 368.881927,376.988892 
	C371.524902,367.225891 374.167847,357.462921 376.971863,347.366150 
z"/>
<path fill="#EDEDED" opacity="1.000000" stroke="none" 
	d="
M368.507965,377.006561 
	C368.934448,377.151337 368.986938,377.313812 369.092804,377.726746 
	C369.006256,378.406891 368.866364,378.836517 368.795624,379.600403 
	C368.864746,379.934601 368.536591,380.065155 368.359985,380.063965 
	C354.040710,380.062744 339.898041,380.062744 325.755341,380.062744 
	C325.714478,379.503967 325.673615,378.945190 325.632751,378.386414 
	C327.250122,378.254395 328.866333,378.025299 330.485046,378.006012 
	C341.421417,377.875885 352.358734,377.815491 363.294708,377.662384 
	C364.910492,377.639740 366.521027,377.246185 368.507965,377.006561 
z"/>
<path fill="#0B1222" opacity="1.000000" stroke="none" 
	d="
M541.407288,816.865234 
	C542.223389,816.976196 542.940735,816.924011 543.151855,817.225891 
	C544.441711,819.070129 545.951416,820.892578 546.583679,822.967407 
	C546.733032,823.457581 543.734192,825.799744 542.303589,825.692383 
	C539.359802,825.471375 537.085266,823.674988 537.506836,820.093445 
	C537.563721,819.609924 537.782715,819.145508 537.961060,818.318970 
	C539.021851,817.598999 540.048218,817.232422 541.407288,816.865234 
z"/>
<path fill="#1A2134" opacity="1.000000" stroke="none" 
	d="
M365.716797,531.473938 
	C366.866302,531.624756 368.729340,532.193176 368.752747,532.829224 
	C368.948242,538.144043 368.850189,543.472839 368.677063,548.792053 
	C368.663635,549.205688 367.408722,549.578918 366.311157,549.976440 
	C365.786865,543.962280 365.682251,537.942566 365.716797,531.473938 
z"/>
<path fill="#EDEDED" opacity="1.000000" stroke="none" 
	d="
M702.086365,377.078003 
	C702.599548,371.126190 702.911560,365.495667 702.964539,359.862671 
	C703.057129,350.032196 702.990295,340.200195 702.990295,330.368835 
	C702.990295,328.829956 702.990234,327.291107 702.990234,325.752228 
	C703.542542,325.715759 704.094849,325.679260 704.647217,325.642792 
	C704.766296,327.286194 704.985535,328.929443 704.988770,330.573059 
	C705.016418,344.570190 705.192932,358.571381 704.897034,372.562317 
	C704.800964,377.105896 706.288391,378.165802 710.588806,378.083496 
	C724.081116,377.825226 737.581543,377.989624 751.078796,377.990234 
	C752.800781,377.990295 754.522766,377.990234 756.244751,377.990234 
	C756.284729,378.533478 756.324646,379.076721 756.364624,379.619965 
	C754.735657,379.748230 753.106934,379.984314 751.477661,379.987823 
	C737.647156,380.017639 723.814392,380.143677 709.987488,379.918335 
	C705.992615,379.853241 704.859802,381.102661 704.921448,385.029572 
	C705.135986,398.690094 705.004700,412.356110 705.004883,426.020020 
	C705.004944,427.760986 705.004883,429.501953 705.004883,431.242950 
	C704.473145,431.287476 703.941406,431.332031 703.409668,431.376587 
	C703.269531,429.765869 703.011414,428.155396 703.007690,426.544373 
	C702.975891,412.713898 702.864746,398.881439 703.070862,385.053955 
	C703.128784,381.167358 702.067017,379.847412 698.031982,379.914368 
	C684.038574,380.146698 670.039124,380.007233 656.041931,380.009125 
	C654.279297,380.009369 652.516663,380.009186 650.753967,380.009186 
	C650.704712,379.489166 650.655396,378.969147 650.606140,378.449127 
	C652.198059,378.295288 653.789734,378.011932 655.382019,378.007904 
	C669.045776,377.973267 682.709839,378.010864 696.373596,377.963745 
	C698.172485,377.957520 699.970215,377.595459 702.086365,377.078003 
z"/>
<path fill="#1A2134" opacity="1.000000" stroke="none" 
	d="
M600.657959,450.241089 
	C602.007690,452.042816 602.660767,454.061066 603.998413,455.390289 
	C617.175171,468.483887 630.493896,481.434601 643.693237,494.505615 
	C645.642212,496.435638 647.179504,498.781311 648.324524,501.656860 
	C647.467285,501.179321 646.446289,500.866333 645.776917,500.200073 
	C630.466248,484.960663 615.182617,469.694031 599.943665,454.382996 
	C599.059448,453.494537 598.596130,452.187195 597.946533,450.733093 
	C598.730408,450.306885 599.504700,450.222382 600.657959,450.241089 
z"/>
<path fill="#313945" opacity="1.000000" stroke="none" 
	d="
M486.687378,450.214050 
	C485.288818,452.448700 483.646393,454.706024 481.701050,456.662109 
	C467.166412,471.276642 452.576996,485.836761 437.983307,500.392395 
	C437.103638,501.269775 436.040344,501.963104 435.062531,502.742096 
	C434.752869,502.468597 434.443237,502.195099 434.133606,501.921600 
	C435.217926,500.686218 436.237915,499.386658 437.396301,498.225189 
	C450.895355,484.690399 464.434296,471.195374 477.909546,457.637024 
	C479.995026,455.538635 481.813568,453.174988 483.840149,450.628143 
	C484.717560,450.247253 485.510406,450.172211 486.687378,450.214050 
z"/>
<path fill="#0B1222" opacity="1.000000" stroke="none" 
	d="
M706.035400,731.632202 
	C705.609619,723.638977 705.167603,715.301392 705.365723,706.979126 
	C705.382751,706.265625 709.651367,705.653320 712.381836,704.973328 
	C710.608643,713.732422 708.398499,722.512146 706.035400,731.632202 
z"/>
<path fill="#262E3F" opacity="1.000000" stroke="none" 
	d="
M716.334961,549.656921 
	C711.310730,550.058167 709.696167,546.745850 709.118103,542.764648 
	C708.269775,536.922241 710.382751,533.260193 715.823608,531.017212 
	C716.292969,537.067749 716.392212,543.173584 716.334961,549.656921 
z"/>
<path fill="#EDEDED" opacity="1.000000" stroke="none" 
	d="
M713.248901,702.433594 
	C713.408081,701.535583 713.626953,701.013123 713.983582,700.240723 
	C717.811584,700.990540 721.486267,702.764648 725.195190,702.839355 
	C734.787415,703.032227 744.394226,702.441956 753.997131,702.272888 
	C754.892700,702.257080 755.801880,703.012512 756.704712,703.409851 
	C756.632874,703.950195 756.560974,704.490540 756.489136,705.030884 
	C742.355591,705.030884 728.222107,705.030884 713.631470,705.049500 
	C713.219116,704.315125 713.263916,703.562195 713.248901,702.433594 
z"/>
<path fill="#030B1D" opacity="1.000000" stroke="none" 
	d="
M541.381714,264.939056 
	C540.851501,264.455322 540.616333,264.007538 540.544983,263.535065 
	C540.260254,261.649200 539.609985,259.672974 539.961487,257.902222 
	C540.121155,257.098083 542.697998,255.889877 543.486206,256.276428 
	C545.183350,257.108643 546.498474,258.795563 547.819092,260.267975 
	C548.159912,260.648010 547.941833,261.529388 547.988770,262.573120 
	C545.915405,263.631714 543.833679,264.297668 541.381714,264.939056 
z"/>
<path fill="#030B1D" opacity="1.000000" stroke="none" 
	d="
M920.611145,536.368958 
	C922.802368,537.146484 925.106628,537.715942 926.295044,539.186890 
	C926.960754,540.010864 926.299988,542.940491 925.285400,543.805847 
	C924.205444,544.726929 921.551086,545.080383 920.372192,544.371399 
	C916.596375,542.100464 917.879456,539.204529 920.611145,536.368958 
z"/>
<path fill="#030B1D" opacity="1.000000" stroke="none" 
	d="
M866.387207,544.450012 
	C862.720581,545.488647 860.092407,544.385620 860.229431,540.834778 
	C860.292358,539.205200 862.420654,536.699463 864.032104,536.304871 
	C866.581116,535.680603 868.372986,537.591980 867.950500,540.527466 
	C867.769226,541.786987 867.133850,542.981140 866.387207,544.450012 
z"/>
<path fill="#030B1D" opacity="1.000000" stroke="none" 
	d="
M542.902100,199.008621 
	C544.789551,200.388901 546.267761,201.772751 547.746033,203.156601 
	C546.206665,204.431458 544.826477,206.265503 543.066833,206.766464 
	C542.049805,207.056000 539.607422,205.447189 539.237366,204.250427 
	C538.479736,201.799713 538.800598,199.124451 542.902100,199.008621 
z"/>
<path fill="#030B1D" opacity="1.000000" stroke="none" 
	d="
M546.518494,879.802307 
	C544.503113,881.076172 542.672729,882.498108 540.707153,882.719421 
	C539.733215,882.829102 537.383362,880.330139 537.605835,879.703064 
	C538.357361,877.584534 539.981567,875.775635 542.045349,872.693726 
	C544.071777,875.670715 545.359802,877.562927 546.518494,879.802307 
z"/>
<path fill="#030B1D" opacity="1.000000" stroke="none" 
	d="
M203.193466,544.862915 
	C202.519791,544.627258 202.033981,544.520081 201.977325,544.301636 
	C201.404007,542.091064 200.643387,539.868591 200.587967,537.633301 
	C200.576416,537.167542 203.718979,535.819580 204.574753,536.315613 
	C206.037827,537.163696 207.948593,539.421448 207.659760,540.589783 
	C207.243637,542.273071 205.028137,543.511475 203.193466,544.862915 
z"/>
<path fill="#FAFBFB" opacity="1.000000" stroke="none" 
	d="
M546.205322,568.463989 
	C528.301941,570.675415 513.901794,559.183838 513.012268,542.409119 
	C512.160034,526.336609 525.349854,512.716736 541.492920,512.999939 
	C555.542603,513.246338 567.096313,523.772095 568.836975,537.911072 
	C570.575439,552.033264 561.362183,564.663025 546.205322,568.463989 
z"/>
<path fill="#FBFCFC" opacity="1.000000" stroke="none" 
	d="
M480.035553,532.118958 
	C484.604095,547.455078 476.950043,562.784729 462.644318,567.500000 
	C448.105988,572.291931 432.219543,564.710205 427.282593,550.623779 
	C422.173798,536.047119 429.246918,520.476868 443.489288,514.947571 
	C458.342621,509.181152 473.592743,516.199097 480.035553,532.118958 
z"/>
<path fill="#FBFCFC" opacity="1.000000" stroke="none" 
	d="
M608.408142,521.414917 
	C624.641541,505.563568 649.739258,513.916382 655.159058,532.913879 
	C658.864136,545.900879 653.471619,559.229309 641.689819,565.630127 
	C630.394531,571.766602 615.906128,569.255676 607.592773,559.720764 
	C598.717834,549.541992 598.053955,535.152100 605.975525,524.377563 
	C606.661438,523.444519 607.429077,522.571594 608.408142,521.414917 
z"/>
<path fill="#1C2335" opacity="1.000000" stroke="none" 
	d="
M400.949829,549.453247 
	C396.055267,546.144409 394.421875,540.546631 396.692535,535.941101 
	C399.167725,530.920715 401.964752,529.894775 408.487152,531.596130 
	C408.958466,531.718994 409.456573,531.816650 409.939545,531.805847 
	C416.993988,531.648804 416.993439,531.643921 416.993469,538.782898 
	C416.993469,542.447083 416.837555,546.119873 417.035980,549.773376 
	C417.285126,554.360718 415.140289,558.377197 411.329468,559.320618 
	C407.699524,560.219177 403.310822,558.760742 399.466858,557.624390 
	C398.411865,557.312500 398.114410,554.438171 397.469330,552.739746 
	C399.182404,552.785522 400.952209,552.581909 402.591034,552.954468 
	C403.953705,553.264160 405.132690,554.764282 406.444977,554.840332 
	C410.156982,555.055298 410.184875,552.554138 409.737000,549.627563 
	C406.804871,549.627563 404.060028,549.627563 400.949829,549.453247 
M404.857513,544.781372 
	C407.952148,545.299255 409.815979,543.824158 409.872162,540.875183 
	C409.901367,539.341431 409.068787,536.953491 407.956421,536.460144 
	C406.726257,535.914551 403.493378,536.801086 403.309479,537.578735 
	C402.827728,539.615784 403.526031,541.933777 403.777740,544.137146 
	C403.790863,544.251709 404.024780,544.341125 404.857513,544.781372 
z"/>
<path fill="#1C2335" opacity="1.000000" stroke="none" 
	d="
M666.427124,544.728760 
	C668.184998,540.015930 670.470764,543.712769 672.615845,544.038208 
	C674.278137,544.290405 675.975098,544.315063 677.656616,544.440857 
	C676.534424,543.158936 675.426697,541.863770 674.276855,540.607117 
	C674.068848,540.379822 673.684326,540.318298 673.388062,540.166870 
	C669.477295,538.167908 665.266479,536.206055 666.132751,530.751343 
	C666.866150,526.133789 671.060608,525.761230 674.571106,525.155701 
	C679.129761,524.369324 682.728821,527.098450 685.048889,533.706909 
	C681.885437,532.595520 679.709351,531.664734 677.442017,531.101807 
	C676.239441,530.803223 674.878357,531.143066 673.588867,531.194702 
	C674.094360,532.282104 674.334534,533.695190 675.170837,534.376465 
	C676.278320,535.278625 677.817444,535.718323 679.231812,536.163757 
	C683.624878,537.547302 685.966064,540.158813 684.976501,545.031494 
	C684.351379,548.109497 679.734619,551.173706 675.631226,550.940063 
	C671.539917,550.707153 668.270813,549.033447 666.427124,544.728760 
z"/>
<path fill="#1C2335" opacity="1.000000" stroke="none" 
	d="
M375.016968,531.052612 
	C378.542084,530.993103 381.642700,531.003235 384.742798,530.968079 
	C389.844940,530.910339 392.840698,533.687256 392.983643,538.713074 
	C393.045044,540.871765 392.820374,543.050903 393.032959,545.190247 
	C393.406311,548.947449 391.983673,550.846436 386.973724,550.612610 
	C386.973724,547.646362 386.930389,544.624817 386.985901,541.605042 
	C387.041138,538.599854 386.220093,536.234192 382.758331,536.054810 
	C378.640961,535.841431 379.022430,538.888916 379.001801,541.569763 
	C378.985199,543.729797 379.221405,545.932373 378.857758,548.031616 
	C378.678833,549.064636 377.553375,550.326965 376.561066,550.699768 
	C375.785095,550.991333 373.650360,550.047546 373.660034,549.694763 
	C373.829742,543.493347 374.236725,537.298279 375.016968,531.052612 
z"/>
<path fill="#1C2335" opacity="1.000000" stroke="none" 
	d="
M694.147705,550.017700 
	C688.448059,547.388489 686.128418,543.630554 687.113953,538.647461 
	C687.868408,534.833313 689.893127,531.835754 694.005920,531.059875 
	C700.241760,529.883545 704.335022,531.776062 707.500916,538.210815 
	C704.124451,537.623901 701.666626,537.004822 699.178040,536.833862 
	C697.613586,536.726562 694.666626,537.182251 694.634827,537.572205 
	C694.458191,539.741699 694.816467,542.019592 695.460449,544.116516 
	C695.550476,544.409790 698.231628,543.975769 699.696472,543.762756 
	C701.915222,543.440125 704.119141,543.015930 706.721069,542.567322 
	C704.809937,549.711182 700.974792,551.791565 694.147705,550.017700 
z"/>
<path fill="#1A2134" opacity="1.000000" stroke="none" 
	d="
M625.751587,600.751587 
	C633.213257,593.278625 640.422791,586.053467 647.632324,578.828369 
	C648.129761,579.345032 648.627197,579.861694 649.124634,580.378357 
	C632.568542,597.023193 616.012451,613.668030 599.456421,630.312866 
	C598.905090,629.781433 598.353760,629.250061 597.802490,628.718689 
	C607.034790,619.478943 616.267090,610.239197 625.751587,600.751587 
z"/>
<path fill="#313945" opacity="1.000000" stroke="none" 
	d="
M474.289215,620.713318 
	C461.016083,607.412842 447.993927,594.362183 434.971802,581.311584 
	C434.868011,581.426086 434.764252,581.540588 434.660492,581.655029 
	C450.932892,597.827393 467.205292,613.999695 483.477692,630.171997 
	C483.626068,630.044617 483.774414,629.917175 483.922791,629.789734 
	C480.795258,626.847595 477.667725,623.905396 474.289215,620.713318 
z"/>
<path fill="#030B1D" opacity="1.000000" stroke="none" 
	d="
M404.506714,544.611816 
	C404.024780,544.341125 403.790863,544.251709 403.777740,544.137146 
	C403.526031,541.933777 402.827728,539.615784 403.309479,537.578735 
	C403.493378,536.801086 406.726257,535.914551 407.956421,536.460144 
	C409.068787,536.953491 409.901367,539.341431 409.872162,540.875183 
	C409.815979,543.824158 407.952148,545.299255 404.506714,544.611816 
z"/>
</svg>