<svg width="18" height="20" viewBox="0 0 18 20" fill="none" xmlns="http://www.w3.org/2000/svg">
<path fill-rule="evenodd" clip-rule="evenodd" d="M15.196 18.4913C13.489 17.4944 14.3785 15.242 15.5241 13.631C16.4535 12.3241 17 10.7259 17 9C17 4.58172 13.4183 1 9 1C4.58172 1 1 4.58172 1 9C1 13.4183 4.58172 17 9 17C9.47918 17 9.93535 17.2105 10.2755 17.548C11.6047 18.8671 13.6246 19.3803 15.5013 18.6982C15.5198 18.6915 15.521 18.6659 15.5034 18.6572C15.3991 18.6054 15.2966 18.55 15.196 18.4913Z" fill="white"/>
<path d="M15.5013 18.6982L15.6721 19.1681L15.6721 19.1681L15.5013 18.6982ZM15.5034 18.6572L15.281 19.105L15.281 19.105L15.5034 18.6572ZM10.2755 17.548L10.6277 17.1931L10.2755 17.548ZM16.5 9C16.5 10.6186 15.9878 12.1162 15.1166 13.3413L15.9316 13.9208C16.9192 12.532 17.5 10.8331 17.5 9H16.5ZM9 1.5C13.1421 1.5 16.5 4.85786 16.5 9H17.5C17.5 4.30558 13.6944 0.5 9 0.5V1.5ZM1.5 9C1.5 4.85786 4.85786 1.5 9 1.5V0.5C4.30558 0.5 0.5 4.30558 0.5 9H1.5ZM9 16.5C4.85786 16.5 1.5 13.1421 1.5 9H0.5C0.5 13.6944 4.30558 17.5 9 17.5V16.5ZM15.3305 18.2283C13.6424 18.8418 11.8247 18.381 10.6277 17.1931L9.92328 17.9029C11.3848 19.3532 13.6067 19.9187 15.6721 19.1681L15.3305 18.2283ZM15.281 19.105C14.9143 18.9228 14.926 18.3753 15.3305 18.2283L15.6721 19.1681C16.1136 19.0077 16.1278 18.409 15.7259 18.2094L15.281 19.105ZM14.9438 18.923C15.0542 18.9875 15.1666 19.0482 15.281 19.105L15.7259 18.2094C15.6317 18.1626 15.539 18.1126 15.4481 18.0595L14.9438 18.923ZM9 17.5C9.33174 17.5 9.66521 17.6468 9.92328 17.9029L10.6277 17.1931C10.2055 16.7742 9.62661 16.5 9 16.5V17.5ZM15.1166 13.3413C14.5243 14.1742 13.9678 15.2119 13.7975 16.2071C13.7114 16.7097 13.7192 17.2288 13.8968 17.7107C14.078 18.2022 14.4227 18.6187 14.9438 18.923L15.4481 18.0595C15.1158 17.8654 14.9315 17.6265 14.8351 17.365C14.7353 17.0939 14.717 16.7623 14.7831 16.3758C14.9172 15.5929 15.3783 14.6988 15.9316 13.9208L15.1166 13.3413Z" fill="white"/>
</svg>
